<svg width="19" height="26" viewBox="0 0 19 26" fill="none" xmlns="http://www.w3.org/2000/svg">
<path d="M16.7648 3.47562H15.307V4.20451C15.307 5.41029 14.3261 6.39119 13.1203 6.39119H5.83139C4.62561 6.39119 3.64471 5.41029 3.64471 4.20451V3.47562H2.18692C0.98114 3.47562 0.000244141 4.50511 0.000244141 5.71089V23.2529C0.000244141 24.4587 0.98114 25.4396 2.18692 25.4396H16.7648C17.9706 25.4396 19.0001 24.4587 19.0001 23.2529V5.6623C19.0001 4.45651 17.9706 3.47562 16.7648 3.47562ZM7.07566 21.1826C7.36036 21.4673 7.36036 21.9286 7.07566 22.2133C6.7909 22.4981 6.32971 22.4981 6.04495 22.2133L5.1025 21.2709L4.16004 22.2133C3.87528 22.4981 3.41409 22.4981 3.12933 22.2133C2.84463 21.9286 2.84463 21.4673 3.12933 21.1826L4.07179 20.2402L3.12938 19.2977C2.84468 19.013 2.84468 18.5517 3.12938 18.267C3.41409 17.9823 3.87538 17.9823 4.16009 18.267L5.1025 19.2095L6.04495 18.267C6.32966 17.9823 6.79095 17.9823 7.07566 18.267C7.36036 18.5517 7.36036 19.013 7.07566 19.2977L6.1332 20.2402L7.07566 21.1826ZM8.53344 13.4666L5.61787 16.3821C5.47549 16.5245 5.289 16.5957 5.10254 16.5957C4.91609 16.5957 4.72955 16.5245 4.58722 16.3821L3.12943 14.9243C2.84463 14.6396 2.84463 14.1784 3.12938 13.8937C3.41409 13.609 3.87538 13.609 4.16009 13.8937L5.1025 14.8361L7.50274 12.4359C7.78745 12.1511 8.24874 12.1511 8.53344 12.4359C8.81815 12.7206 8.81815 13.1818 8.53344 13.4666ZM8.53344 9.0932L5.61787 12.0088C5.47549 12.1511 5.289 12.2223 5.10254 12.2223C4.91609 12.2223 4.72955 12.1511 4.58722 12.0088L3.12943 10.551C2.84463 10.2663 2.84463 9.80503 3.12938 9.52033C3.41409 9.23562 3.87538 9.23562 4.16009 9.52033L5.1025 10.4627L7.50274 8.06249C7.78745 7.77779 8.24874 7.77779 8.53344 8.06249C8.81815 8.3472 8.81815 8.80849 8.53344 9.0932ZM15.307 20.9691H10.9336C10.5308 20.9691 10.2047 20.643 10.2047 20.2402C10.2047 19.8373 10.5308 19.5113 10.9336 19.5113H15.307C15.7099 19.5113 16.0359 19.8373 16.0359 20.2402C16.0359 20.643 15.7099 20.9691 15.307 20.9691ZM15.307 16.5957H10.9336C10.5308 16.5957 10.2047 16.2697 10.2047 15.8668C10.2047 15.4639 10.5308 15.1379 10.9336 15.1379H15.307C15.7099 15.1379 16.0359 15.4639 16.0359 15.8668C16.0359 16.2697 15.7099 16.5957 15.307 16.5957ZM15.307 12.2223H10.9336C10.5308 12.2223 10.2047 11.8963 10.2047 11.4934C10.2047 11.0906 10.5308 10.7645 10.9336 10.7645H15.307C15.7099 10.7645 16.0359 11.0906 16.0359 11.4934C16.0359 11.8963 15.7099 12.2223 15.307 12.2223Z" fill="#1EB3B3"/>
<path d="M12.3913 2.01784H11.0233L10.851 1.5324C10.6446 0.950842 10.0922 0.560059 9.47578 0.560059C8.85933 0.560059 8.30697 0.950842 8.10055 1.5324L7.92829 2.01784H6.5602C5.75507 2.01784 5.10242 2.6705 5.10242 3.47563V4.20452C5.10242 4.60707 5.42877 4.93342 5.83131 4.93342H13.1202C13.5228 4.93342 13.8491 4.60707 13.8491 4.20452V3.47563C13.8491 2.6705 13.1965 2.01784 12.3913 2.01784Z" fill="#1EB3B3"/>
</svg>
