<svg width="20" height="19" viewBox="0 0 20 19" fill="none" xmlns="http://www.w3.org/2000/svg">
<path d="M19.1539 4.92302V16.6923C19.1539 17.4145 18.5684 18 17.8462 18H2.15389C1.43167 18 0.846191 17.4145 0.846191 16.6923V4.92302M19.1539 4.92302H0.846191M19.1539 4.92302L17.315 2.16457C16.8299 1.43697 16.0133 0.999939 15.1388 0.999939L4.8613 0.999939C3.98683 0.999939 3.17023 1.43697 2.68516 2.16457L0.846191 4.92302M10.0001 4.92302V0.999939" stroke="#3D4FF4" stroke-width="1.5" stroke-linecap="round" stroke-linejoin="round"/>
<path d="M19.1539 16.6923V5.92303C19.1539 5.37075 18.7062 4.92303 18.1539 4.92303H1.84619C1.29391 4.92303 0.846191 5.37075 0.846191 5.92303V16.6923C0.846191 17.4145 1.43167 18 2.15389 18H17.8462C18.5684 18 19.1539 17.4145 19.1539 16.6923Z" fill="#3D4FF4"/>
<path d="M18.4039 5.92303V16.6923H19.9039V5.92303H18.4039ZM17.8462 17.25H2.15389V18.75H17.8462V17.25ZM1.59619 16.6923V5.92303H0.0961914V16.6923H1.59619ZM2.15389 17.25C1.84588 17.25 1.59619 17.0003 1.59619 16.6923H0.0961914C0.0961914 17.8287 1.01745 18.75 2.15389 18.75V17.25ZM18.4039 16.6923C18.4039 17.0003 18.1542 17.25 17.8462 17.25V18.75C18.9827 18.75 19.9039 17.8287 19.9039 16.6923H18.4039ZM1.84619 5.67303H18.1539V4.17303H1.84619V5.67303ZM1.59619 5.92303C1.59619 5.78496 1.70812 5.67303 1.84619 5.67303V4.17303C0.879693 4.17303 0.0961914 4.95654 0.0961914 5.92303H1.59619ZM19.9039 5.92303C19.9039 4.95654 19.1204 4.17303 18.1539 4.17303V5.67303C18.292 5.67303 18.4039 5.78496 18.4039 5.92303H19.9039Z" fill="#3D4FF4"/>
<path fill-rule="evenodd" clip-rule="evenodd" d="M13.3089 9.46033C13.6919 9.84334 13.6919 10.4643 13.3089 10.8473L10.7464 13.4099C9.85266 14.3036 8.40368 14.3036 7.50998 13.4099L6.69107 12.5909C6.30805 12.2079 6.30805 11.5869 6.69107 11.2039C7.07409 10.8209 7.69508 10.8209 8.07809 11.2039L8.897 12.0228C9.02468 12.1505 9.23167 12.1505 9.35934 12.0228L11.9218 9.46033C12.3049 9.07731 12.9259 9.07731 13.3089 9.46033Z" fill="#DDE0FF"/>
</svg>
