<svg width="14" height="14" viewBox="0 0 14 14" fill="none" xmlns="http://www.w3.org/2000/svg">
<g clip-path="url(#clip0_8_522)">
<path d="M3.88281 10.0078C3.58078 10.0078 3.33594 9.76297 3.33594 9.46094C3.33594 9.15891 3.58078 8.91406 3.88281 8.91406C4.18484 8.91406 4.42969 9.15891 4.42969 9.46094C4.42969 9.76297 4.18484 10.0078 3.88281 10.0078Z" fill="#BB6BD9"/>
<path d="M1.42188 9.89844C1.11984 9.89844 0.875 9.6536 0.875 9.35156V7.32812C0.875 6.12194 1.85631 5.14062 3.0625 5.14062H3.71976V3.21196C3.71976 1.44088 5.19173 0 7.00101 0C8.81029 0 10.2823 1.44088 10.2823 3.21196V5.14062H10.9375C12.1437 5.14062 13.125 6.12194 13.125 7.32812V11.8125C13.125 13.0187 12.1437 14 10.9375 14H3.0625C1.85631 14 0.875 13.0187 0.875 11.8125C0.875 11.5105 1.11984 11.2656 1.42188 11.2656C1.72391 11.2656 1.96875 11.5105 1.96875 11.8125C1.96875 12.4156 2.45941 12.9062 3.0625 12.9062H10.9375C11.5406 12.9062 12.0312 12.4156 12.0312 11.8125V7.32812C12.0312 6.72503 11.5406 6.23438 10.9375 6.23438H3.0625C2.45941 6.23438 1.96875 6.72503 1.96875 7.32812V9.35156C1.96875 9.6536 1.72391 9.89844 1.42188 9.89844ZM4.81351 5.14062H9.18851V3.21196C9.18851 2.04397 8.2072 1.09375 7.00101 1.09375C5.79482 1.09375 4.81351 2.04397 4.81351 3.21196V5.14062Z" fill="#BB6BD9"/>
<path d="M8.01172 10.0078C7.70969 10.0078 7.46484 9.76297 7.46484 9.46094C7.46484 9.15891 7.70969 8.91406 8.01172 8.91406C8.31375 8.91406 8.55859 9.15891 8.55859 9.46094C8.55859 9.76297 8.31375 10.0078 8.01172 10.0078Z" fill="#BB6BD9"/>
<path d="M10.0625 10.0078C9.76047 10.0078 9.51562 9.76297 9.51562 9.46094C9.51562 9.15891 9.76047 8.91406 10.0625 8.91406C10.3645 8.91406 10.6094 9.15891 10.6094 9.46094C10.6094 9.76297 10.3645 10.0078 10.0625 10.0078Z" fill="#BB6BD9"/>
<path d="M5.96094 10.0078C5.65891 10.0078 5.41406 9.76297 5.41406 9.46094C5.41406 9.15891 5.65891 8.91406 5.96094 8.91406C6.26297 8.91406 6.50781 9.15891 6.50781 9.46094C6.50781 9.76297 6.26297 10.0078 5.96094 10.0078Z" fill="#BB6BD9"/>
</g>
<defs>
<clipPath id="clip0_8_522">
<rect width="14" height="14" fill="white" transform="matrix(-1 0 0 1 14 0)"/>
</clipPath>
</defs>
</svg>
