<svg width="22" height="22" viewBox="0 0 22 22" fill="none" xmlns="http://www.w3.org/2000/svg">
<path d="M6.34509 6.68377C6.48771 8.5568 7.23265 7.74947 7.38633 8.57024C7.64185 9.9346 8.84979 10.9214 9.60173 11.2623C10.0404 11.461 10.4922 11.5608 10.9671 11.5687V11.5691C10.9688 11.5691 10.9704 11.5689 10.9721 11.5689C10.9737 11.5689 10.9754 11.5691 10.977 11.5691V11.5687C11.4519 11.5608 11.9037 11.4611 12.3424 11.2623C13.0944 10.9214 14.3023 9.9346 14.5578 8.57024C14.7115 7.74951 15.4565 8.5568 15.5991 6.68377C15.5991 5.93732 15.1923 5.75156 15.1923 5.75156C15.1923 5.75156 15.3991 4.64669 15.4801 3.79652C15.5804 2.737 14.8616 0 11.0275 0C11.0107 0 10.9952 0.000914208 10.9788 0.00109705C10.9782 0.00109705 10.9777 0.00109705 10.9771 0.00105134V0.000868497C10.9754 0.000914208 10.9738 0.000959918 10.9721 0.000959918C10.9705 0.000959918 10.9688 0.000914208 10.9672 0.000868497V0.00109705C10.9666 0.00114276 10.966 0.00114276 10.9655 0.00114276C10.9491 0.000914208 10.9335 4.57104e-05 10.9168 4.57104e-05C7.08268 4.57104e-05 6.36383 2.73705 6.46417 3.79657C6.54512 4.64674 6.75192 5.7516 6.75192 5.7516C6.75192 5.7516 6.34509 5.93732 6.34509 6.68377Z" fill="#6B59FF"/>
<path d="M19.6697 15.8784C17.7358 14.8946 14.9327 13.6657 14.7982 13.6223C14.7967 13.6218 14.7955 13.6217 14.7941 13.6212C14.7154 13.5932 14.6308 13.5777 14.5425 13.5777C14.2139 13.5777 13.9352 13.7881 13.8318 14.0815C13.8313 14.0811 13.8307 14.0809 13.8302 14.0805C13.331 15.2834 12.4141 17.4276 11.8448 18.4615L11.7077 15.5628C11.7077 15.5628 12.5627 13.7482 12.6562 13.5819C12.8766 13.1923 12.6781 12.8605 12.2651 12.8605C12.0602 12.8605 11.5477 12.8605 11.0343 12.8605C11.0337 12.8605 11.0332 12.8605 11.0326 12.8605C11.0293 12.8605 11.026 12.8605 11.0227 12.8605C11.0221 12.8605 11.0215 12.8605 11.021 12.8605C11.0139 12.8605 11.0069 12.8605 10.9998 12.8605C10.9928 12.8605 10.9858 12.8605 10.9787 12.8605C10.9781 12.8605 10.9776 12.8605 10.977 12.8605C10.9737 12.8605 10.9704 12.8605 10.9671 12.8605C10.9665 12.8605 10.966 12.8605 10.9654 12.8605C10.452 12.8605 9.93954 12.8605 9.73457 12.8605C9.32153 12.8605 9.12315 13.1923 9.34343 13.5819C9.43704 13.7482 10.292 15.5628 10.292 15.5628L10.1549 18.4615C9.5856 17.4276 8.6687 15.2835 8.16954 14.0805C8.16899 14.0809 8.16844 14.0811 8.16789 14.0815C8.0645 13.7883 7.7858 13.5777 7.45723 13.5777C7.36888 13.5777 7.28431 13.5932 7.20564 13.6212C7.20418 13.6218 7.20304 13.6219 7.20153 13.6223C7.06705 13.6657 4.26395 14.8946 2.33004 15.8784C1.46154 16.3202 0.937378 16.8697 0.937378 17.4481C0.937378 19.36 0.937378 21.9999 0.937378 21.9999H10.9583H10.9671H10.9719H10.9721H10.977H10.9858H10.9999H11.014H11.0227H11.0275H11.0278H11.0326H11.0413H21.0623C21.0623 21.9999 21.0623 19.36 21.0623 17.4481C21.0623 16.8697 20.5382 16.3202 19.6697 15.8784Z" fill="#6B59FF"/>
</svg>
