<svg width="25" height="25" viewBox="0 0 25 25" fill="none" xmlns="http://www.w3.org/2000/svg">
<g id="statistics 1" clip-path="url(#clip0_8_823)">
<g id="Group">
<path id="Vector" d="M21.0957 3.93903H18.6445C18.3345 4.90485 17.4272 5.60553 16.3599 5.60553H8.64014C7.57275 5.60553 6.66553 4.90485 6.35547 3.93903H3.9043C3.36494 3.93903 2.92773 4.37623 2.92773 4.91559V24.0235C2.92773 24.5629 3.36494 25.0001 3.9043 25.0001H21.0957C21.6351 25.0001 22.0723 24.5629 22.0723 24.0235V4.91559C22.0723 4.37623 21.6351 3.93903 21.0957 3.93903V3.93903ZM18.1045 12.9971C17.8022 12.9971 17.5195 12.8087 17.4136 12.5074L16.9458 11.1773L13.166 19.4234C12.9225 19.9546 12.178 20.0037 11.8726 19.4962L8.61426 14.0797L7.28125 15.9522C7.04687 16.2818 6.58984 16.3585 6.26025 16.1241C5.93066 15.8897 5.85352 15.4322 6.08789 15.1026L8.06885 12.3194C8.37441 11.8912 9.02129 11.9142 9.29346 12.3668L12.4126 17.5518L15.644 10.5015L14.1782 11.0225C13.7969 11.1583 13.3784 10.959 13.2427 10.5777C13.1074 10.1968 13.3062 9.77789 13.6875 9.64264L16.749 8.55377C17.2251 8.38414 17.6067 8.64113 17.7275 8.98541L18.7954 12.0215C18.9632 12.498 18.608 12.9971 18.1045 12.9971V12.9971Z" fill="#2D9CDB"/>
<path id="Vector_2" d="M8.64001 4.14063H16.3597C16.8768 4.14063 17.2938 3.71919 17.2938 3.20654C17.2938 2.69365 16.8766 2.27246 16.3597 2.27246H14.351C13.9467 2.27246 13.6185 1.94482 13.6185 1.54004V1.11865C13.6185 0.501953 13.1166 0 12.4999 0C11.8832 0 11.3812 0.501953 11.3812 1.11865V1.54004C11.3812 1.94482 11.0531 2.27246 10.6488 2.27246H8.64001C8.12297 2.27246 7.70593 2.69385 7.70593 3.20654C7.70593 3.71943 8.12317 4.14063 8.64001 4.14063Z" fill="#2D9CDB"/>
</g>
</g>
<defs>
<clipPath id="clip0_8_823">
<rect width="25" height="25" fill="white"/>
</clipPath>
</defs>
</svg>
