<svg width="12" height="12" viewBox="0 0 12 12" fill="none" xmlns="http://www.w3.org/2000/svg">
<path d="M11.4853 2.9911C10.4113 4.0651 10.4818 3.99706 10.4515 4.01937L7.60863 6.11834L8.71149 7.2211C9.59817 6.90514 10.6021 7.12358 11.2777 7.79921C12.0138 8.53529 12.207 9.66064 11.7585 10.5995C11.654 10.8182 11.3641 10.8678 11.1929 10.6965L10.2837 9.78734C10.1467 9.65033 9.92377 9.6503 9.78666 9.78734C9.64929 9.92471 9.64929 10.147 9.78666 10.2844L10.6958 11.1935C10.8673 11.3649 10.8174 11.6548 10.5988 11.7592C9.65998 12.2077 8.53465 12.0144 7.79855 11.2784C7.12275 10.6026 6.90457 9.59865 7.22044 8.71219L5.94853 7.4404C5.68957 7.64183 6.03129 7.29779 3.59227 9.88402L3.84795 10.1397C4.00967 10.3014 3.97596 10.5721 3.78026 10.6896L1.8979 11.819C1.40447 12.1151 0.775713 12.0377 0.368815 11.6308C-0.0380603 11.2239 -0.115474 10.5951 0.180588 10.1017L1.31002 8.2193C1.42763 8.02323 1.69849 7.99023 1.85988 8.15162L2.10101 8.39274C4.5274 5.81989 4.20804 6.16937 4.39985 5.92273C4.4044 5.9169 4.40946 5.91174 4.41429 5.90626L3.28646 4.77851C2.40005 5.09438 1.39603 4.8762 0.720283 4.2004C-0.0157946 3.46433 -0.209013 2.339 0.23951 1.40014C0.344065 1.18137 0.633893 1.13187 0.805151 1.30311L1.71431 2.21229C1.8514 2.34933 2.07431 2.34929 2.21135 2.21229C2.34872 2.07493 2.34872 1.85265 2.21135 1.71528L1.30214 0.806091C1.13072 0.634693 1.1806 0.344865 1.39917 0.240451C1.73663 0.0792475 2.09808 0.000943184 2.457 0.000943184C3.09661 0.000966072 3.72792 0.249732 4.19944 0.721224C4.87524 1.39702 5.09342 2.40097 4.77755 3.28744L5.74074 4.25056L7.98333 1.52525C8.00039 1.50458 7.94409 1.56219 8.9471 0.559177C9.31223 0.194044 9.79767 0.00476265 10.275 0.00476265C10.6253 0.00476265 10.9712 0.106763 11.2617 0.315989C12.1484 0.954591 12.2529 2.22357 11.4853 2.9911ZM2.3641 9.13826C2.22785 9.28271 1.99946 9.28524 1.85988 9.14565L1.68113 8.96691L0.783307 10.4633C0.65351 10.6797 0.687424 10.9554 0.86583 11.1338C1.04424 11.3122 1.31993 11.3461 1.53624 11.2163L3.03265 10.3184L2.85389 10.1397C2.71948 10.0053 2.71629 9.78837 2.84672 9.65009C5.64919 6.67847 5.20835 7.12564 5.4476 6.93955L4.91424 6.40623C4.7299 6.64327 5.15792 6.17581 2.3641 9.13826ZM4.11457 3.61854C4.00924 3.51322 3.98175 3.35295 4.04597 3.21854C4.36634 2.54794 4.22824 1.74411 3.70242 1.21829C3.36553 0.881396 2.9146 0.703646 2.45761 0.703692C2.37542 0.703692 2.29306 0.709435 2.2111 0.72106L2.70835 1.21831C3.1204 1.63034 3.12047 2.2973 2.70835 2.70938C2.29728 3.12047 1.62835 3.12045 1.21728 2.70938L0.720026 2.21213C0.643901 2.74967 0.819822 3.30596 1.21728 3.70341C1.74312 4.22928 2.54693 4.3673 3.21753 4.04698C3.35192 3.98279 3.51216 4.01023 3.61753 4.11558L7.88339 8.38114C7.98872 8.48647 8.01621 8.64673 7.95202 8.78115C7.63165 9.45172 7.76974 10.2556 8.29556 10.7814C8.69309 11.1789 9.24933 11.3548 9.78685 11.2786L9.28959 10.7814C9.09045 10.5823 8.98076 10.3175 8.98076 10.0359C8.98076 9.75423 9.09045 9.48948 9.28959 9.2903C9.70067 8.87921 10.3696 8.87923 10.7807 9.2903L11.2779 9.78755C11.354 9.25001 11.1781 8.69373 10.7807 8.29627C10.2548 7.77043 9.45099 7.63236 8.78039 7.9527C8.64605 8.0169 8.48576 7.98943 8.38041 7.8841L4.11457 3.61854ZM6.23862 4.74842L7.10602 5.61575L7.99006 4.96306L6.93385 3.90685C6.21572 4.77952 6.26053 4.72693 6.23862 4.74842ZM10.8509 0.886341C10.441 0.591122 9.83618 0.664083 9.44407 1.05619L8.51522 1.98502L7.38253 3.36153L8.56186 4.54086L10.0129 3.46955L10.9883 2.49411C11.4341 2.04826 11.4055 1.28576 10.8509 0.886341Z" fill="#2D5151"/>
</svg>
