<svg width="16" height="16" viewBox="0 0 16 16" fill="none" xmlns="http://www.w3.org/2000/svg">
<g clip-path="url(#clip0_8_499)">
<path d="M14.5946 3.78122H7.72101L6.57074 0.320872C6.50705 0.12928 6.32783 0 6.12593 0H1.40722C0.631815 0 0.000976562 0.630839 0.000976562 1.40624V10.8124C0.000976562 11.5878 0.631815 12.2187 1.40722 12.2187H6.57271L7.7136 15.6698C7.77663 15.8719 7.96357 16 8.16138 16C8.16247 16 8.16357 15.9999 8.16466 15.9999H14.5946C15.37 15.9999 16.0009 15.369 16.0009 14.5936V5.18746C16.0009 4.41206 15.37 3.78122 14.5946 3.78122ZM1.40722 11.2812C1.14875 11.2812 0.938469 11.0709 0.938469 10.8124V1.40624C0.938469 1.14777 1.14875 0.937493 1.40722 0.937493H5.78778L9.22609 11.2812C7.47011 11.2812 3.14101 11.2812 1.40722 11.2812ZM9.14869 12.2187L8.22994 14.2449L7.5601 12.2187H9.14869ZM15.0634 14.5936C15.0634 14.8521 14.8531 15.0624 14.5946 15.0624H8.88866L10.3028 11.9435C10.3535 11.8316 10.3559 11.7077 10.3206 11.6018L8.03263 4.71871H14.5946C14.8531 4.71871 15.0634 4.92899 15.0634 5.18746V14.5936Z" fill="#27AE60"/>
<path d="M6.12546 5.65623H4.71922C4.46034 5.65623 4.25047 5.86611 4.25047 6.12498C4.25047 6.38385 4.46034 6.59373 4.71922 6.59373H5.57608C5.38259 7.13932 4.86156 7.53122 4.25047 7.53122C3.47507 7.53122 2.84423 6.90038 2.84423 6.12498C2.84423 5.34958 3.47507 4.71874 4.25047 4.71874C4.62609 4.71874 4.97921 4.86502 5.24484 5.13061C5.42787 5.31367 5.72468 5.31367 5.90774 5.13061C6.09077 4.94755 6.09077 4.65077 5.90774 4.46771C5.46505 4.02503 4.8765 3.78125 4.25047 3.78125C2.95814 3.78125 1.90674 4.83265 1.90674 6.12498C1.90674 7.41731 2.95814 8.46871 4.25047 8.46871C5.5428 8.46871 6.5942 7.41731 6.5942 6.12498C6.5942 5.86611 6.38433 5.65623 6.12546 5.65623Z" fill="#27AE60"/>
<path d="M13.6247 7.53121H12.2185V7.06247C12.2185 6.80359 12.0086 6.59372 11.7497 6.59372C11.4909 6.59372 11.281 6.80359 11.281 7.06247V7.53121H9.87475C9.61588 7.53121 9.40601 7.74109 9.40601 7.99996C9.40601 8.25883 9.61588 8.4687 9.87475 8.4687H12.5978C12.4487 8.91198 12.1285 9.43732 11.756 9.94288C11.6758 9.83457 11.5966 9.72373 11.5202 9.61135C11.3746 9.39726 11.0831 9.34173 10.869 9.48732C10.6549 9.63288 10.5994 9.92444 10.745 10.1385C10.8765 10.3319 11.0143 10.5201 11.1517 10.6985C10.9175 10.9702 10.6866 11.2163 10.484 11.4154C10.2992 11.5967 10.2964 11.8935 10.4777 12.0782C10.6582 12.2623 10.955 12.2666 11.1406 12.0845C11.1567 12.0686 11.4124 11.8168 11.7538 11.4302C12.087 11.8115 12.3365 12.0621 12.3558 12.0814C12.5388 12.2644 12.8354 12.2645 13.0185 12.0815C13.2016 11.8985 13.2017 11.6017 13.0188 11.4186C13.0139 11.4137 12.7269 11.1251 12.3607 10.698C13.0242 9.84026 13.4288 9.09311 13.5689 8.4687H13.6247C13.8836 8.4687 14.0934 8.25883 14.0934 7.99996C14.0934 7.74109 13.8836 7.53121 13.6247 7.53121Z" fill="#27AE60"/>
</g>
<defs>
<clipPath id="clip0_8_499">
<rect width="16" height="16" fill="white"/>
</clipPath>
</defs>
</svg>
