<svg width="14" height="16" viewBox="0 0 14 16" fill="none" xmlns="http://www.w3.org/2000/svg">
<path d="M8.71429 7.06644L7.03466 8.82579C6.69993 9.17642 6.15722 9.17642 5.82248 8.82579L5.28571 8.26355M13 4.51652V7.74717C13 10.6557 11.3255 13.2771 8.75877 14.3866L7.65398 14.8642C7.23513 15.0453 6.76487 15.0453 6.34602 14.8642L5.24123 14.3866C2.67453 13.2771 1 10.6557 1 7.74717V4.51652C1 3.6749 1.55805 2.94619 2.3424 2.76362L2.73166 2.67301C3.57387 2.47697 4.38919 2.17071 5.15841 1.76145L6.22366 1.19469C6.71155 0.935104 7.28845 0.935104 7.77634 1.19469L8.84159 1.76145C9.61081 2.17071 10.4261 2.47697 11.2683 2.67301L11.6576 2.76362C12.4419 2.94619 13 3.67489 13 4.51652Z" stroke="#F2994A" stroke-width="1.5" stroke-linecap="round" stroke-linejoin="round"/>
</svg>
